<svg xmlns="http://www.w3.org/2000/svg" width="550" height="205" viewBox="0 0 550 205" role="img" aria-labelledby="title desc"><title id="title">Published portfolio inventory</title><desc id="desc">Counts extracted from index.html on 16 September 2026.</desc><rect width="550" height="205" fill="#07100c"/><text x="16" y="20" fill="#ecf4ef" font-family="Arial" font-weight="700" font-size="15">Published portfolio inventory</text><text x="16" y="42" fill="#b6cabf" font-family="Arial" font-size="13">Portfolio sections</text><rect x="154" y="28" width="340" height="16" rx="3" fill="#1b2c24"/><rect x="154" y="28" width="48" height="16" rx="3" fill="#2fd79a"/><text x="508" y="42" fill="#ecf4ef" font-family="Arial" font-size="13">14</text><text x="16" y="84" fill="#b6cabf" font-family="Arial" font-size="13">Live project cards</text><rect x="154" y="70" width="340" height="16" rx="3" fill="#1b2c24"/><rect x="154" y="70" width="167" height="16" rx="3" fill="#2fd79a"/><text x="508" y="84" fill="#ecf4ef" font-family="Arial" font-size="13">49</text><text x="16" y="126" fill="#b6cabf" font-family="Arial" font-size="13">Research cards</text><rect x="154" y="112" width="340" height="16" rx="3" fill="#1b2c24"/><rect x="154" y="112" width="99" height="16" rx="3" fill="#2fd79a"/><text x="508" y="126" fill="#ecf4ef" font-family="Arial" font-size="13">29</text><text x="16" y="168" fill="#b6cabf" font-family="Arial" font-size="13">GitHub links</text><rect x="154" y="154" width="340" height="16" rx="3" fill="#1b2c24"/><rect x="154" y="154" width="340" height="16" rx="3" fill="#2fd79a"/><text x="508" y="168" fill="#ecf4ef" font-family="Arial" font-size="13">100</text><text x="16" y="195" fill="#7e988b" font-family="Arial" font-size="10">Source: index.html. Method: deterministic HTML inventory.</text></svg>
